<svg xmlns="http://www.w3.org/2000/svg" version="1.1" xmlns:xlink="http://www.w3.org/1999/xlink" xmlns:svgjs="http://svgjs.dev/svgjs" width="1440" height="560" preserveAspectRatio="none" viewBox="0 0 1440 560"><g mask="url(&quot;#SvgjsMask1000&quot;)" fill="none"><rect width="1440" height="560" x="0" y="0" fill="#0e2a47"></rect><path d="M 0,175 C 57.6,165.2 172.8,105.6 288,126 C 403.2,146.4 460.8,287 576,277 C 691.2,267 748.8,95 864,76 C 979.2,57 1036.8,169.4 1152,182 C 1267.2,194.6 1382.4,147.6 1440,139L1440 560L0 560z" fill="#184a7e"></path><path d="M 0,297 C 96,335 288,482.8 480,487 C 672,491.2 768,326.6 960,318 C 1152,309.4 1344,418.8 1440,444L1440 560L0 560z" fill="#2264ab"></path></g><defs><mask id="SvgjsMask1000"><rect width="1440" height="560" fill="#ffffff"></rect></mask></defs></svg>